<svg height="512pt" viewBox="-31 0 512 512" width="512pt" xmlns="http://www.w3.org/2000/svg"><path d="m0 0v232.40625c0 126.390625 83.316406 239.09375 206.765625 274.363281l18.300781 5.230469 18.300782-5.230469c121.273437-34.648437 206.765624-145.726562 206.765624-274.363281v-232.40625zm317.234375 30.007812-32.152344 48.765626-32.152343-48.765626zm27.867187 12.253907 32.152344 48.765625h-64.304687zm-87.882812 48.765625s-40.875 0-64.304688 0l32.152344-48.765625zm-60.019531-61.019532-32.152344 48.765626-32.152344-48.765626zm-60.015625 61.019532h-64.304688l32.152344-48.765625zm-107.175782-61.019532h47.15625l-40.230468 61.019532h-6.925782zm0 202.398438v-111.371094h175.164063l-34.292969 120.035156h-140.710937c-.097657-2.878906-.160157-5.765624-.160157-8.664062zm195.058594-71.757812 42.167969 147.59375-42.167969 21.082031-42.171875-21.082031zm0 320.140624c-5.953125-2.121093-39.578125-8.695312-78.742187-34.265624 22.851562-16.480469 50.21875-25.402344 78.742187-25.402344 28.523438 0 55.890625 8.921875 78.738282 25.402344-39.359376 25.703124-72.941407 32.199218-78.738282 34.265624zm185.542969-179.703124h-77.511719v30h67.003906c-4.363281 10.339843-9.382812 20.375-15.03125 30.019531h-51.972656v30h31.425782c-10.621094 13.386719-22.578126 25.734375-35.691407 36.800781-29.335937-23.808594-65.707031-36.792969-103.765625-36.792969-38.0625 0-74.429687 12.984375-103.769531 36.792969-13.113281-11.066406-25.066406-23.402344-35.691406-36.792969h34.429687v-30.007812h-54.972656c-5.648438-9.644531-10.667969-19.667969-15.03125-30.007813h70.003906v-30.011718h-79.949218v2c-3.035157-10.445313-5.410157-21.132813-7.09375-32.007813h129.3125l-15.105469 52.863281 77.867187 38.933594 77.863282-38.933594-15.101563-52.871094h129.308594c-1.574219 10.183594-3.765625 20.207032-6.527344 30.015626zm9.511719-68.679688c0 2.898438-.0625 5.785156-.160156 8.664062h-140.707032l-34.296875-120.035156h175.164063zm0-141.378906h-6.925782l-40.230468-61.019532h47.15625zm0 0"/><path d="m49.410156 191.664062c19.492188 19.492188 37.554688 29.238282 55.621094 29.238282 18.0625 0 36.128906-9.746094 55.621094-29.238282l10.613281-10.613281-10.613281-10.609375c-38.988282-38.984375-72.253906-38.984375-111.242188 0l-10.613281 10.609375zm78.328125-10.613281c-16.609375 13.1875-28.804687 13.1875-45.417969 0 16.613282-13.183593 28.808594-13.183593 45.417969 0zm0 0"/><path d="m289.476562 170.441406-10.609374 10.609375 10.609374 10.613281c19.496094 19.492188 37.558594 29.238282 55.625 29.238282 18.0625 0 36.128907-9.746094 55.621094-29.238282l10.609375-10.613281-10.609375-10.609375c-38.988281-38.984375-72.257812-38.984375-111.246094 0zm32.914063 10.609375c16.613281-13.183593 28.804687-13.183593 45.417969 0-16.613282 13.1875-28.804688 13.1875-45.417969 0zm0 0"/></svg>