<svg id="Layer_1" enable-background="new 0 0 512 512" height="512" viewBox="0 0 512 512" width="512" xmlns="http://www.w3.org/2000/svg"><g><path d="m409.966 85.453c-82.13-4.341-146.466-38.582-146.466-77.953 0-4.142-3.357-7.5-7.5-7.5s-7.5 3.358-7.5 7.5c0 39.371-64.336 73.612-146.466 77.953-14.23.752-25.378 12.538-25.378 26.832v20.776c0 4.142 3.357 7.5 7.5 7.5s7.5-3.358 7.5-7.5v-20.776c0-6.315 4.906-11.522 11.169-11.853 43.06-2.276 82.972-12.475 112.384-28.719 19.107-10.553 32.948-23.216 40.791-37.02 7.843 13.804 21.684 26.467 40.791 37.02 29.412 16.244 69.324 26.443 112.384 28.719 6.263.331 11.169 5.537 11.169 11.853v143.839c0 4.142 3.357 7.5 7.5 7.5s7.5-3.358 7.5-7.5v-143.839c0-14.294-11.147-26.08-25.378-26.832z"/><path d="m427.844 283.535c-4.143 0-7.5 3.358-7.5 7.5v21.621c0 81.947-139.677 168.516-164.345 183.16-24.668-14.635-164.343-101.157-164.343-183.16v-144.902c0-4.142-3.357-7.5-7.5-7.5s-7.5 3.358-7.5 7.5v144.902c0 41.678 29.809 87.857 88.597 137.254 43 36.13 85.283 60.119 87.063 61.122 1.143.646 2.414.968 3.684.968s2.541-.322 3.685-.968c1.779-1.003 44.063-24.992 87.063-61.122 58.788-49.397 88.597-95.576 88.597-137.254v-21.621c-.001-4.142-3.358-7.5-7.501-7.5z"/><path d="m256 380.674c68.541 0 124.304-55.762 124.304-124.304s-55.763-124.303-124.304-124.303-124.304 55.762-124.304 124.304 55.763 124.303 124.304 124.303zm0-233.607c60.271 0 109.304 49.034 109.304 109.304s-49.033 109.303-109.304 109.303-109.304-49.034-109.304-109.304 49.034-109.303 109.304-109.303z"/><path d="m200.311 284.451h27.423v27.411c0 4.142 3.357 7.5 7.5 7.5h41.308c4.143 0 7.5-3.358 7.5-7.5v-27.411h27.648c4.143 0 7.5-3.358 7.5-7.5v-41.16c0-4.142-3.357-7.5-7.5-7.5h-27.648v-27.411c0-4.142-3.357-7.5-7.5-7.5h-41.308c-4.143 0-7.5 3.358-7.5 7.5v27.411h-27.423c-4.143 0-7.5 3.358-7.5 7.5v41.16c0 4.142 3.357 7.5 7.5 7.5zm7.5-41.16h27.423c4.143 0 7.5-3.358 7.5-7.5v-27.411h26.308v27.411c0 4.142 3.357 7.5 7.5 7.5h27.648v26.16h-27.648c-4.143 0-7.5 3.358-7.5 7.5v27.411h-26.308v-27.411c0-4.142-3.357-7.5-7.5-7.5h-27.423z"/></g></svg>