<?xml version="1.0" encoding="iso-8859-1"?>
<!-- Generator: Adobe Illustrator 19.0.0, SVG Export Plug-In . SVG Version: 6.00 Build 0)  -->
<svg version="1.1" id="Capa_1" xmlns="http://www.w3.org/2000/svg" xmlns:xlink="http://www.w3.org/1999/xlink" x="0px" y="0px"
	 viewBox="0 0 512 512" style="enable-background:new 0 0 512 512;" xml:space="preserve">
<rect x="201.135" y="82.992" style="fill:#8C7A67;" width="107.497" height="77.025"/>
<g>
	<rect x="201.135" y="109.38" style="fill:#827060;" width="107.497" height="13.656"/>
	<rect x="201.135" y="137.49" style="fill:#827060;" width="107.497" height="13.656"/>
	<rect x="201.135" y="82.992" style="fill:#827060;" width="107.497" height="13.922"/>
</g>
<path style="fill:#A89378;" d="M308.627,117.605H201.132c-4.545,0-8.229-3.684-8.229-8.229c0-4.545,3.684-8.229,8.229-8.229h107.496
	c4.545,0,8.229,3.684,8.229,8.229C316.856,113.92,313.172,117.605,308.627,117.605z"/>
<path style="fill:#635549;" d="M254.88,156.319c-4.545,0-8.229-3.684-8.229-8.229v-15.575c0-4.545,3.684-8.229,8.229-8.229
	c4.545,0,8.229,3.684,8.229,8.229v15.575C263.108,152.635,259.425,156.319,254.88,156.319z"/>
<path style="fill:#A89378;" d="M331.709,183.957H180.288c-4.183,0-6.827-4.494-4.796-8.15l4.52-8.135l7.604-13.697
	c0.967-1.742,2.804-2.823,4.797-2.823h127.17c1.993,0,3.829,1.081,4.797,2.823l7.604,13.697l4.52,8.135
	C338.537,179.463,335.893,183.957,331.709,183.957z"/>
<polygon style="fill:#96826C;" points="341.034,183.957 170.965,183.957 180.014,167.671 331.985,167.671 "/>
<path style="fill:#A89378;" d="M353.65,215.745H158.349c-4.182,0-6.826-4.492-4.797-8.148l4.517-8.139l7.604-13.688
	c0.968-1.742,2.804-2.822,4.796-2.822h171.063c1.992,0,3.828,1.081,4.796,2.822l7.604,13.688l4.517,8.139
	C360.476,211.254,357.832,215.745,353.65,215.745z"/>
<polygon style="fill:#96826C;" points="362.969,215.745 149.03,215.745 158.068,199.459 353.93,199.459 "/>
<path style="fill:#A89378;" d="M384.914,247.544H127.084l0.061-0.112l9.038-16.287l7.543-13.585
	c0.968-1.742,2.804-2.823,4.796-2.823h214.953c1.993,0,3.829,1.081,4.796,2.823l7.543,13.585l9.039,16.287L384.914,247.544z"/>
<polygon style="fill:#96826C;" points="384.854,247.433 127.145,247.433 136.184,231.146 375.814,231.146 "/>
<path style="fill:#A89378;" d="M406.861,278.326H105.138l0.071-0.122l9.038-16.287l7.543-13.577
	c0.968-1.741,2.804-2.822,4.796-2.822h258.825c1.992,0,3.828,1.081,4.796,2.822l7.542,13.577l9.038,16.287L406.861,278.326z"/>
<polygon style="fill:#96826C;" points="406.789,278.203 105.21,278.203 114.248,261.917 397.751,261.917 "/>
<path style="fill:#A89378;" d="M428.807,310.124H83.192l0.071-0.122l9.038-16.287l7.543-13.577c0.968-1.741,2.804-2.822,4.796-2.822
	h302.718c1.992,0,3.828,1.081,4.796,2.822l7.543,13.577l9.038,16.287L428.807,310.124z"/>
<polygon style="fill:#96826C;" points="428.735,310.001 83.264,310.001 92.303,293.716 419.696,293.716 "/>
<path style="fill:#A89378;" d="M441.43,341.912H70.569c-4.182,0-6.826-4.493-4.796-8.149l4.412-7.944l7.715-13.883
	c0.968-1.741,2.804-2.821,4.795-2.821h346.61c1.992,0,3.828,1.08,4.795,2.821l7.715,13.883l4.412,7.944
	C448.257,337.42,445.612,341.912,441.43,341.912z"/>
<polygon style="fill:#96826C;" points="450.752,341.912 61.247,341.912 70.184,325.82 441.814,325.82 "/>
<path style="fill:#A89378;" d="M463.369,373.711H48.63c-4.182,0-6.826-4.492-4.797-8.148l4.517-8.139l7.604-13.697
	c0.967-1.742,2.804-2.823,4.797-2.823h390.498c1.993,0,3.829,1.081,4.797,2.823l7.604,13.697l4.517,8.139
	C470.194,369.22,467.55,373.711,463.369,373.711z"/>
<polygon style="fill:#96826C;" points="472.687,373.711 39.312,373.711 48.35,357.426 463.649,357.426 "/>
<path style="fill:#A89378;" d="M485.314,405.511H26.685c-4.182,0-6.826-4.492-4.797-8.148l4.517-8.139l7.604-13.697
	c0.967-1.742,2.804-2.823,4.797-2.823h434.389c1.993,0,3.829,1.081,4.797,2.823l7.604,13.697l4.517,8.139
	C492.14,401.019,489.496,405.511,485.314,405.511z"/>
<polygon style="fill:#96826C;" points="494.633,405.511 17.366,405.511 26.404,389.224 485.594,389.224 "/>
<path style="fill:#A89378;" d="M8.585,437.23c-5.904,0.005-9.64-6.336-6.774-11.497l2.924-5.266l7.331-13.207
	c0.967-1.742,2.804-2.824,4.797-2.824h478.274c1.993,0,3.829,1.081,4.797,2.824l7.331,13.207l2.671,4.806
	c2.864,5.156-0.86,11.493-6.759,11.498L8.585,437.23z"/>
<path style="fill:#96826C;" d="M505.807,436.76H6.192c-4.714,0-7.694-5.065-5.405-9.185l3.949-7.108h502.529l3.949,7.108
	C513.501,431.695,510.522,436.76,505.807,436.76z"/>
<polygon style="fill:#A89378;" points="307.658,437.242 204.342,437.242 224.7,151.148 287.299,151.148 "/>
<g>
	<path style="fill:#96826C;" d="M279.53,177.745h-47.062c-4.545,0-8.229-3.684-8.229-8.229s3.684-8.229,8.229-8.229h47.062
		c4.545,0,8.229,3.684,8.229,8.229S284.075,177.745,279.53,177.745z"/>
	<path style="fill:#96826C;" d="M280.863,198.301h-49.726c-4.545,0-8.229-3.684-8.229-8.229s3.684-8.229,8.229-8.229h49.726
		c4.545,0,8.229,3.684,8.229,8.229S285.408,198.301,280.863,198.301z"/>
	<path style="fill:#96826C;" d="M282.371,218.857h-52.742c-4.545,0-8.229-3.684-8.229-8.229s3.684-8.229,8.229-8.229h52.741
		c4.545,0,8.229,3.684,8.229,8.229S286.915,218.857,282.371,218.857z"/>
	<path style="fill:#96826C;" d="M283.878,239.412h-55.757c-4.545,0-8.229-3.684-8.229-8.229s3.684-8.229,8.229-8.229h55.757
		c4.545,0,8.229,3.684,8.229,8.229S288.422,239.412,283.878,239.412z"/>
	<path style="fill:#96826C;" d="M285.525,259.968h-59.052c-4.545,0-8.229-3.684-8.229-8.229c0-4.545,3.684-8.229,8.229-8.229h59.052
		c4.545,0,8.229,3.684,8.229,8.229C293.754,256.284,290.071,259.968,285.525,259.968z"/>
	<path style="fill:#96826C;" d="M286.892,280.524h-61.785c-4.545,0-8.229-3.684-8.229-8.229c0-4.545,3.684-8.229,8.229-8.229h61.785
		c4.545,0,8.229,3.684,8.229,8.229S291.437,280.524,286.892,280.524z"/>
	<path style="fill:#96826C;" d="M288.399,301.079h-64.8c-4.545,0-8.229-3.684-8.229-8.229c0-4.545,3.684-8.229,8.229-8.229h64.8
		c4.545,0,8.229,3.684,8.229,8.229C296.628,297.395,292.945,301.079,288.399,301.079z"/>
	<path style="fill:#96826C;" d="M289.907,321.635h-67.814c-4.545,0-8.229-3.684-8.229-8.229c0-4.545,3.684-8.229,8.229-8.229h67.814
		c4.545,0,8.229,3.684,8.229,8.229C298.136,317.951,294.452,321.635,289.907,321.635z"/>
	<path style="fill:#96826C;" d="M291.502,342.191h-71.004c-4.545,0-8.229-3.684-8.229-8.229c0-4.545,3.684-8.229,8.229-8.229h71.004
		c4.545,0,8.229,3.684,8.229,8.229C299.729,338.507,296.046,342.191,291.502,342.191z"/>
	<path style="fill:#96826C;" d="M293.043,362.747h-74.087c-4.545,0-8.229-3.684-8.229-8.229c0-4.545,3.684-8.229,8.229-8.229h74.087
		c4.545,0,8.229,3.684,8.229,8.229C301.272,359.063,297.589,362.747,293.043,362.747z"/>
	<path style="fill:#96826C;" d="M294.521,383.302h-77.045c-4.545,0-8.229-3.684-8.229-8.229c0-4.545,3.684-8.229,8.229-8.229h77.045
		c4.545,0,8.229,3.684,8.229,8.229C302.75,379.618,299.067,383.302,294.521,383.302z"/>
	<path style="fill:#96826C;" d="M295.936,403.858h-79.873c-4.545,0-8.229-3.684-8.229-8.229c0-4.545,3.684-8.229,8.229-8.229h79.873
		c4.545,0,8.229,3.684,8.229,8.229C304.165,400.174,300.481,403.858,295.936,403.858z"/>
	<path style="fill:#96826C;" d="M297.653,424.414h-83.309c-4.545,0-8.229-3.684-8.229-8.229c0-4.545,3.684-8.229,8.229-8.229h83.309
		c4.545,0,8.229,3.684,8.229,8.229C305.882,420.73,302.199,424.414,297.653,424.414z"/>
</g>
<g>
	<polygon style="fill:#8C7A67;" points="212.25,437.242 167.222,437.242 211.739,151.148 233.23,151.148 	"/>
	<polygon style="fill:#8C7A67;" points="299.749,437.242 344.777,437.242 300.26,151.148 278.769,151.148 	"/>
</g>
<path style="fill:#A89378;" d="M308.627,91.216H201.132c-4.545,0-8.229-3.684-8.229-8.229s3.684-8.229,8.229-8.229h107.496
	c4.545,0,8.229,3.684,8.229,8.229C316.856,87.532,313.172,91.216,308.627,91.216z"/>
<g>
</g>
<g>
</g>
<g>
</g>
<g>
</g>
<g>
</g>
<g>
</g>
<g>
</g>
<g>
</g>
<g>
</g>
<g>
</g>
<g>
</g>
<g>
</g>
<g>
</g>
<g>
</g>
<g>
</g>
</svg>
